<svg xmlns="http://www.w3.org/2000/svg" viewBox="0 0 1000 1000"><path d="M500 10a490 490 0 1 0 0 980 490 490 0 0 0 0-980zm193 695c-146 0-197-66-224-148l-27-84c-20-62-44-110-118-110-52 0-104 37-104 141 0 81 41 132 99 132 66 0 110-49 110-49l27 73s-45 45-141 45c-118 0-184-69-184-198 0-134 66-212 190-212 113 0 169 40 205 150l28 85c20 62 55 106 141 106 58 1 88-12 88-43 0-25-14-43-57-53l-58-13c-70-17-98-54-98-111 0-92 74-121 150-121 87 0 139 31 146 107l-85 10c-3-36-25-51-66-51-37 0-60 17-60 46 0 25 11 40 48 49l55 12c72 16 111 52 111 121 0 84-71 116-176 116z" fill="currentColor"/></svg>
