<svg xmlns="http://www.w3.org/2000/svg" fill-rule="evenodd" viewBox="0 0 64 64"><path d="M50 22.27c0-3.95-3.25-7.2-7.2-7.2H21.2a7.23 7.23 0 0 0-7.2 7.2v30.85c0 3.95 3.25 7.2 7.2 7.2h21.6c3.95 0 7.2-3.25 7.2-7.2V22.27Zm-13.48 22.2c0-1.26-1.04-2.3-2.3-2.3h-8.96a2.3 2.3 0 0 0-2.15 2.3c0 1.2.95 2.22 2.15 2.3h8.97a2.31 2.31 0 0 0 2.29-2.3ZM11.49 25.2c-.85-.82-5.17-3.85-9.1-8.52a1.24 1.24 0 0 0-2.17.6c-.26 2.29-.54 6.55.74 10.07a10.2 10.2 0 0 0 3.11 4.16c-.85 4.51.6 8.2 2.47 10.42a10.43 10.43 0 0 0 5.23 3.43c1.94.45 2.15-17.8-.28-20.16Zm41.02 0c.85-.82 5.17-3.85 9.1-8.52.3-.37.8-.53 1.27-.4s.84.5.9 1c.26 2.29.54 6.55-.74 10.07a10.28 10.28 0 0 1-3.11 4.16c.85 4.51-.6 8.2-2.47 10.42a10.43 10.43 0 0 1-5.23 3.43c-1.94.45-2.15-17.8.28-20.16ZM36.52 44.45v.01Zm4.53-9.03c0-1.26-1.04-2.3-2.3-2.3h-13.5a2.31 2.31 0 0 0-2.3 2.3 2.3 2.3 0 0 0 2.3 2.3h13.5a2.3 2.3 0 0 0 2.3-2.3Zm0-9.03c0-1.26-1.04-2.3-2.3-2.3h-13.5a2.3 2.3 0 0 0-2.15 2.3c0 1.2.95 2.21 2.15 2.3h13.5c1.26 0 2.3-1.04 2.3-2.3Zm0 0ZM32 3.68c6.62 0 12.23 1.15 14.1 2.74.8.54 1.32 1.48 1.32 2.56 0 1.12-.57 2.1-1.42 2.62-1.93 1.54-7.37 2.65-13.8 2.68h-.22c-6.74 0-12.43-1.2-14.2-2.83a3.1 3.1 0 0 1-1.2-2.47 3.1 3.1 0 0 1 1.31-2.56C19.77 4.83 25.38 3.68 32 3.68Zm.73 4.48a39.46 39.46 0 0 1 7.9.81s-3.6.83-7.81.83a58.9 58.9 0 0 1-1.64 0c-4.2 0-7.8-.82-7.8-.82s3.6-.82 7.8-.82a58.9 58.9 0 0 1 1.55 0Z" fill="currentColor"/></svg>