<svg xmlns="http://www.w3.org/2000/svg" xml:space="preserve" fill-rule="evenodd" stroke-linejoin="round" stroke-miterlimit="2" clip-rule="evenodd" viewBox="0 0 64 64"><path fill="#fff" fill-rule="nonzero" d="m63 44.17-16.7-16.7-2.38 2.38 2.38 2.4-8.35 8.34-2.38-2.38-2.39 2.38 7.16 7.16-9.54 9.54 2.38 2.38 9.54-9.54 7.16 7.16 2.38-2.39-2.38-2.38 8.35-8.35 2.38 2.38L63 44.17Zm-34.05 10.3 6.62-6.62-3.02-3.02-4.14-4.14 2.39-2.38 2.05-2.06c-2.38-.4-4.61-.59-6.45-.59-8.48 0-25.4 4.2-25.4 12.54v3.13a3.16 3.16 0 0 0 3.18 3.13h24.77ZM26.4 29.4c7.01 0 12.7-5.61 12.7-12.54 0-6.92-5.69-12.53-12.7-12.53-7.02 0-12.7 5.6-12.7 12.53S19.38 29.4 26.4 29.4Z"/></svg>